<?xml version="1.0" encoding="utf-8"?>
<!-- Generator: Adobe Illustrator 24.3.0, SVG Export Plug-In . SVG Version: 6.00 Build 0)  -->
<svg version="1.1" id="Capa_1" xmlns="http://www.w3.org/2000/svg" xmlns:xlink="http://www.w3.org/1999/xlink" x="0px" y="0px"
	 viewBox="0 0 2122 2122" style="enable-background:new 0 0 2122 2122;" xml:space="preserve">
<style type="text/css">
	.st0{fill:#FBDACF;}
	.st1{fill:#F7B7A6;}
	.st2{fill:#ED6935;}
	.st3{fill:#96D5F4;}
	.st4{fill:none;}
	.st5{fill:#0B465E;}
</style>
<g>
	<path class="st0" d="M1803.37,1078.3l-15.63-4.53l-0.08-0.02l-161.14-46.7V335.34c0-34.33,1.2-68.91,0-103.23v-1.46
		c0-9.43-14.65-9.44-14.65,0v745.25c0,15.56-0.24,31.18-0.4,46.79l-433.74-125.7l-310-89.84l-6.88,61.78l41.39-33.91l-9.12,92.86
		l-3.53,35.98l-39.82,405.35l-3.35,34.13l-10.6,107.93l5.01-105l1.99-41.71l9.43-197.64l4.21-88.2l5.86-122.77l1.74-36.5l1.27-26.59
		l-15.25,22.54l-20.93,30.94l-9.71,14.35l0.94-16.89l2.03-36.41l6.23-111.56l-121.45-35.2V302.8c0-23.63,1.04-47.53,0-71.14v-1.01
		c0-9.43-14.65-9.44-14.65,0v512.39c0,4.43-0.04,8.87-0.09,13.32l-140.37-40.68c-26.33-7.63-53.86,7.53-61.49,33.86l-15.33,52.92
		l-1.16,3.99l-0.74,2.57l-9.15,31.57h0l-179.47,619.27c-10.15,35.01,10.01,71.62,45.02,81.76l935.75,271.18l40.43,10.17
		l13.47-317.18l-41.9,23.39l14.21-240.33l-30.23,16.46l43.95-146.62l-36.16,130.16l36.16-28.58l-7.53,126.87l-3.31,55.82l-2.4,40.49
		l-0.48,7.99l35.91-17.95l4.28,32.27l6.49,48.95h0.01l7.55,56.89l4.85,36.54l26.16,196.97l172.63,50.03
		c35,10.15,71.61-10.01,81.75-45.02l189.87-655.16l15.98-55.15C1844.85,1113.46,1829.7,1085.93,1803.37,1078.3z"/>
	<g>
		<polygon class="st1" points="1271.66,1312.78 1261.5,1417.04 1255.86,1474.87 1247.92,1481.41 1255.02,1483.47 1250.56,1529.24 
			1247.92,1556.25 1288.74,1546.22 1265.52,1812.79 1305.95,1822.96 1319.41,1505.78 1277.52,1529.16 1291.73,1288.84 
			1261.5,1305.29 1305.45,1158.68 1237.87,1320.26 		"/>
		<polygon class="st0" points="1611.47,1022.69 1177.73,896.98 1611.47,1022.69 		"/>
		<polygon class="st0" points="1787.73,1073.77 1787.65,1073.74 1626.52,1027.05 1626.52,1027.05 		"/>
		<polygon class="st0" points="1338.43,1554.7 1345.98,1611.59 1360.6,1561.13 		"/>
		<path class="st0" d="M836.2,1362.09c2.44,0.71,4.64,1.53,6.62,2.47l9.43-197.64l-53.42,184.34L836.2,1362.09z"/>
		<polygon class="st2" points="865.33,892.86 850.08,915.4 864.06,919.45 		"/>
		<path class="st2" d="M828.65,795.82l-121.45-35.2v30.46c13.17,4,20.71,17.86,16.87,31.12c-3.87,13.36-17.85,21.06-31.21,17.18
			c-13.36-3.87-21.06-17.84-17.18-31.21c2.41-8.33,8.75-14.45,16.41-16.95c-0.01-11.62,0.23-23.26,0.37-34.87l-140.37-40.68
			c-26.33-7.63-53.86,7.53-61.49,33.86l-15.33,52.92l-1.16,3.99l348.32,100.94L828.65,795.82z"/>
		<path class="st2" d="M1821.24,1194.94l15.98-55.15c7.63-26.33-7.53-53.86-33.86-61.49l-15.63-4.53l-161.22-46.72v29.43
			c13.17,4,20.72,17.86,16.88,31.12c-3.87,13.36-17.85,21.05-31.21,17.18c-13.36-3.87-21.06-17.85-17.18-31.21
			c2.41-8.32,8.74-14.44,16.4-16.94c-0.11-11.3-0.04-22.62,0.07-33.94l-433.74-125.7l-310-89.84l-6.88,61.78l41.39-33.91
			l-9.12,92.86l927.62,268.83L1821.24,1194.94z M1700.82,1108.78c-1.84,6.35-8.48,10-14.83,8.16c-6.34-1.84-10-8.48-8.16-14.83
			c1.84-6.35,8.47-10,14.82-8.16C1699,1095.79,1702.66,1102.43,1700.82,1108.78z M1743.28,1121.08c-1.84,6.35-8.48,10.01-14.83,8.16
			c-6.34-1.84-10-8.48-8.16-14.82c1.84-6.35,8.47-10,14.82-8.16C1741.46,1108.1,1745.12,1114.73,1743.28,1121.08z M1785.73,1133.38
			c-1.84,6.35-8.48,10-14.83,8.16c-6.34-1.84-10-8.48-8.16-14.82c1.84-6.35,8.47-10,14.82-8.16
			C1783.91,1120.4,1787.57,1127.04,1785.73,1133.38z"/>
		<g>
			<polygon class="st1" points="588.42,1290.28 623,1300.3 752.12,1193.93 766.78,1143.33 			"/>
		</g>
		<path class="st1" d="M835.66,1077.16c-0.97,0.29-1.94,0.62-2.91,0.99l0.2,0.31c3.36,5.54,3.77,12.71,1.22,21.5l-69.92,241.27
			l37.37,10.83c8.05,2.33,13.57,5.92,16.54,10.75c2.96,4.83,3.44,10.73,1.43,17.69c-2.13,7.33-5.74,12.25-10.82,14.74
			c-5.07,2.48-11.6,2.57-19.59,0.28l34.45,9.98c6.79,1.97,12.52,2.22,17.21,0.76l1.99-41.71c-1.97-0.94-4.18-1.76-6.62-2.47
			l-37.37-10.83l53.42-184.34l4.21-88.2c-1.22-0.55-2.5-1.02-3.86-1.41C846.73,1075.61,841.09,1075.56,835.66,1077.16z"/>
		<path class="st1" d="M734.62,1443.46c-2.45,8.43-6.5,14.2-12.17,17.32c-0.57,0.32-1.16,0.6-1.76,0.87
			c3.25,4.79,8.5,8.24,15.75,10.34c8.06,2.33,14.93,1.94,20.6-1.18c5.67-3.12,9.73-8.89,12.17-17.33l17.04-58.81l-34.58-10.02
			L734.62,1443.46z"/>
		<path class="st1" d="M854.17,1390.53c2.01-6.96,1.54-12.86-1.43-17.69c-0.81-1.31-1.8-2.52-2.97-3.64l-3.35,34.13
			C849.91,1400.56,852.5,1396.29,854.17,1390.53z"/>
		<path class="st1" d="M959.73,1449.72c-6.96-29.42-2.69-70.87,12.81-124.37c15.5-53.49,33.98-90.54,55.44-111.13
			c17.02-16.34,36.52-23.52,58.49-21.54c-5.15-2.64-10.79-4.84-16.92-6.62c-29.32-8.5-54.7-2.45-76.15,18.14
			c-21.45,20.59-39.94,57.63-55.44,111.13c-15.5,53.5-19.77,94.95-12.81,124.38c6.96,29.42,25.09,48.38,54.41,56.88
			c6.09,1.76,12.01,2.89,17.77,3.37C977.78,1489.78,965.25,1473.03,959.73,1449.72z"/>
		<path class="st1" d="M1204.38,1232.57c-13.37-40.22-42.59-66.86-87.66-79.91c-5.9-1.71-11.72-3.07-17.43-4.08
			c35.41,14.46,58.91,39.11,70.5,73.97c13.36,40.21,10.65,92.75-8.15,157.6c-12.42,42.87-28.16,77.63-47.2,104.28
			c-19.04,26.65-40.87,44.75-65.49,54.3c-19.72,7.65-41.19,9.44-64.4,5.37c5.39,2.22,11.06,4.19,17.01,5.92
			c30.03,8.7,57.37,8.28,81.98-1.26c24.61-9.55,46.45-27.65,65.48-54.3c19.05-26.65,34.78-61.41,47.21-104.28
			C1215.03,1325.32,1217.74,1272.78,1204.38,1232.57z"/>
		<polygon class="st1" points="1426.29,1334.46 1294.61,1442.95 1292.21,1483.44 1411.63,1385.05 		"/>
		<path class="st1" d="M1493.67,1291.09l-69.92,241.27l37.37,10.83c8.06,2.33,13.57,5.92,16.55,10.75
			c2.96,4.83,3.44,10.73,1.42,17.69c-2.12,7.33-5.73,12.25-10.82,14.74c-5.1,2.5-11.67,2.57-19.73,0.24l-37.37-10.83l-17.05,58.81
			c-2.44,8.43-6.5,14.2-12.17,17.33c-0.57,0.32-1.16,0.6-1.76,0.86c3.25,4.79,8.5,8.24,15.75,10.33c8.05,2.34,14.92,1.95,20.59-1.18
			c5.67-3.12,9.73-8.89,12.17-17.32l17.04-58.81l37.37,10.83c8.05,2.33,14.63,2.26,19.73-0.24c5.09-2.49,8.7-7.4,10.83-14.74
			c2.02-6.95,1.54-12.85-1.43-17.69c-2.98-4.83-8.49-8.41-16.54-10.75l-37.37-10.83l69.92-241.27c2.55-8.79,2.13-15.96-1.22-21.5
			c-3.37-5.54-8.34-9.27-14.93-11.18c-5.87-1.7-11.51-1.75-16.94-0.14c-0.97,0.28-1.94,0.62-2.91,0.99l0.2,0.31
			C1495.81,1275.13,1496.22,1282.3,1493.67,1291.09z"/>
		<polygon class="st1" points="1820.73,1196.69 893.12,927.87 889.58,963.85 1810.84,1230.83 		"/>
		<polygon class="st1" points="822.42,907.38 474.11,806.44 473.37,809.01 464.22,840.57 464.22,840.57 820.39,943.79 		"/>
		<polygon class="st1" points="864.06,919.45 850.08,915.4 829.16,946.33 862.32,955.94 		"/>
		<path class="st0" d="M1692.66,1093.95c-6.35-1.84-12.98,1.82-14.82,8.16c-1.85,6.35,1.81,12.99,8.16,14.83
			c6.35,1.84,12.99-1.82,14.83-8.16C1702.66,1102.43,1699,1095.79,1692.66,1093.95z"/>
		<path class="st3" d="M1735.12,1106.26c-6.35-1.84-12.98,1.82-14.82,8.16c-1.85,6.35,1.81,12.98,8.16,14.82
			c6.35,1.84,12.99-1.81,14.83-8.16C1745.12,1114.73,1741.46,1108.1,1735.12,1106.26z"/>
		<path class="st3" d="M692.55,815.18v-1.01c-0.33-7.62-0.45-15.28-0.46-22.95c-7.66,2.5-14,8.62-16.41,16.95
			c-3.87,13.37,3.82,27.34,17.18,31.21c13.36,3.87,27.34-3.82,31.21-17.18c3.84-13.26-3.7-27.12-16.87-31.12v24.1
			C707.2,824.63,692.55,824.61,692.55,815.18z"/>
		<path class="st3" d="M1611.87,1080.58v-1.46c-0.26-7.49-0.4-14.99-0.47-22.5c-7.66,2.5-13.98,8.62-16.4,16.94
			c-3.87,13.36,3.82,27.34,17.18,31.21c13.36,3.87,27.34-3.82,31.21-17.18c3.84-13.26-3.71-27.12-16.88-31.12v24.1
			C1626.52,1090.03,1611.87,1090.01,1611.87,1080.58z"/>
	</g>
	<g>
		<polygon class="st4" points="623,1300.3 713.68,1326.58 752.12,1193.93 766.78,1143.33 588.42,1290.28 		"/>
		<path class="st4" d="M1086.47,1192.68c-5.15-2.64-10.79-4.84-16.92-6.62c-29.32-8.5-54.7-2.45-76.15,18.14
			c-21.45,20.59-39.94,57.63-55.44,111.13c-15.5,53.5-19.77,94.95-12.81,124.38c6.96,29.42,25.09,48.38,54.41,56.88
			c6.09,1.76,12.01,2.89,17.77,3.37c21.95,1.85,41.5-5.6,58.62-22.34c21.62-21.14,40.18-58.45,55.68-111.95
			c15.5-53.49,19.78-94.65,12.85-123.47C1118.97,1219.31,1106.3,1202.81,1086.47,1192.68z"/>
		<path class="st5" d="M832.75,1078.15c-3.36-5.37-8.27-9-14.73-10.87c-5.86-1.7-11.51-1.74-16.94-0.14
			c-5.44,1.61-10.96,4.57-16.58,8.9l-232.2,190.67c-7.83,6.47-13.53,11.77-17.12,15.89c-3.58,4.13-6,8.39-7.28,12.78
			c-2.23,7.69-1.4,14.1,2.48,19.19c3.89,5.1,9.86,8.81,17.92,11.15l34.54,10.01L701.09,1370l-17.04,58.8
			c-2.44,8.44-2.1,15.48,1.02,21.15c3.12,5.67,8.71,9.67,16.77,12.01c7.24,2.1,13.53,2,18.84-0.31c0.6-0.26,1.18-0.55,1.76-0.86
			c5.67-3.12,9.73-8.89,12.17-17.32l17.04-58.81l34.58,10.02l2.79,0.81c0.05,0.01,0.09,0.03,0.14,0.04c8,2.29,14.53,2.2,19.6-0.28
			c5.09-2.49,8.7-7.41,10.82-14.74c2.01-6.96,1.54-12.86-1.43-17.69c-2.98-4.83-8.49-8.42-16.54-10.75l-37.37-10.83l69.92-241.27
			c2.55-8.79,2.14-15.96-1.22-21.5L832.75,1078.15z M752.12,1193.93l-38.44,132.65L623,1300.3l-34.58-10.02l178.37-146.95
			L752.12,1193.93z"/>
		<path class="st5" d="M1099.29,1148.58c-5.44-2.22-11.15-4.2-17.15-5.94c-29.68-8.6-56.87-8.33-81.55,0.79
			c-24.69,9.13-46.5,26.84-65.44,53.12c-18.94,26.29-34.72,61.23-47.36,104.83c-18.58,64.12-21.21,116.68-7.87,157.68
			c13.33,41.01,42.35,67.98,87.06,80.93c5.97,1.73,11.83,3.1,17.58,4.11c23.21,4.07,44.68,2.28,64.4-5.37
			c24.62-9.55,46.44-27.64,65.49-54.3c19.04-26.65,34.77-61.41,47.2-104.28c18.8-64.85,21.51-117.39,8.15-157.6
			C1158.2,1187.69,1134.69,1163.03,1099.29,1148.58z M1111.63,1365.65c-15.5,53.5-34.06,90.81-55.68,111.95
			c-17.12,16.75-36.67,24.19-58.62,22.34c-5.76-0.48-11.68-1.61-17.77-3.37c-29.32-8.5-47.45-27.46-54.41-56.88
			c-6.96-29.42-2.7-70.88,12.81-124.38c15.5-53.49,33.99-90.54,55.44-111.13c21.46-20.59,46.84-26.64,76.15-18.14
			c6.13,1.78,11.77,3.98,16.92,6.62c19.83,10.14,32.5,26.64,38.01,49.51C1131.41,1271,1127.14,1312.17,1111.63,1365.65z"/>
		<path class="st5" d="M1492.26,1269.28c-3.37-5.37-8.26-8.99-14.74-10.87c-5.86-1.7-11.51-1.74-16.94-0.14
			c-5.43,1.61-10.96,4.57-16.57,8.9l-146.09,119.96l-3.31,55.82l131.68-108.49l-14.66,50.59l-38.45,132.66l-41.26-11.96l6.49,48.95
			h0.01l22.17,6.43l-14.62,50.46l4.85,36.54c2.85,2.1,6.36,3.76,10.52,4.96c7.24,2.1,13.53,2,18.84-0.31
			c0.6-0.26,1.19-0.55,1.76-0.86c5.67-3.12,9.72-8.89,12.17-17.33l17.05-58.81l37.37,10.83c8.06,2.34,14.64,2.26,19.73-0.24
			c5.09-2.49,8.7-7.4,10.82-14.74c2.02-6.96,1.54-12.86-1.42-17.69c-2.98-4.83-8.49-8.42-16.55-10.75l-37.37-10.83l69.92-241.27
			c2.55-8.79,2.14-15.96-1.21-21.5L1492.26,1269.28z"/>
		<path class="st5" d="M1194.69,1473.73c-3.58,4.13-6.01,8.39-7.28,12.78c-2.23,7.69-1.4,14.1,2.48,19.19
			c3.88,5.1,9.86,8.81,17.91,11.15l42.49,12.31l0.26,0.08l4.47-45.77l-7.1-2.06l7.93-6.53l5.64-57.84l-49.69,40.8
			C1203.98,1464.31,1198.26,1469.61,1194.69,1473.73z"/>
		<path class="st5" d="M1777.57,1118.56c-6.35-1.84-12.98,1.82-14.82,8.16c-1.85,6.35,1.81,12.98,8.16,14.82
			c6.35,1.84,12.99-1.82,14.83-8.16C1787.57,1127.04,1783.91,1120.4,1777.57,1118.56z"/>
		<path class="st5" d="M692.55,815.18c0,9.43,14.65,9.44,14.65,0V302.8c0-23.63,1.04-47.53,0-71.14v-1.01c0-9.42-14.65-9.44-14.65,0
			v512.39c0,4.43-0.04,8.87-0.09,13.32c-0.14,11.61-0.38,23.25-0.37,34.87c0.01,7.67,0.13,15.32,0.46,22.95V815.18z"/>
		<path class="st5" d="M1626.52,230.65c0-9.42-14.65-9.44-14.65,0v745.25c0,15.56-0.24,31.18-0.4,46.79v0
			c-0.11,11.32-0.18,22.64-0.07,33.94c0.07,7.51,0.21,15.01,0.47,22.5v1.46c0,9.42,14.65,9.44,14.65,0V335.34
			c0-34.33,1.2-68.91,0-103.23V230.65z"/>
	</g>
</g>
</svg>
