<svg width="24" height="24" viewBox="0 0 24 24" fill="none" xmlns="http://www.w3.org/2000/svg">
<g id="solar:arrow-up-outline">
<path id="Vector" fill-rule="evenodd" clip-rule="evenodd" d="M20.53 11.4702C20.6704 11.6108 20.7493 11.8014 20.7493 12.0002C20.7493 12.1989 20.6704 12.3895 20.53 12.5302L14.53 18.5302C14.4613 18.6038 14.3785 18.6629 14.2865 18.7039C14.1945 18.7449 14.0952 18.767 13.9945 18.7687C13.8938 18.7705 13.7938 18.752 13.7004 18.7143C13.607 18.6766 13.5222 18.6204 13.451 18.5492C13.3797 18.478 13.3236 18.3931 13.2859 18.2998C13.2481 18.2064 13.2296 18.1063 13.2314 18.0056C13.2332 17.9049 13.2552 17.8056 13.2962 17.7136C13.3372 17.6216 13.3963 17.5388 13.47 17.4702L18.19 12.7502L3.99999 12.7502C3.80108 12.7502 3.61031 12.6711 3.46966 12.5305C3.32901 12.3898 3.24999 12.1991 3.24999 12.0002C3.24999 11.8012 3.32901 11.6105 3.46966 11.4698C3.61031 11.3292 3.80108 11.2502 3.99999 11.2502L18.19 11.2502L13.47 6.53015C13.3963 6.46149 13.3372 6.37869 13.2962 6.28669C13.2552 6.19469 13.2332 6.09538 13.2314 5.99468C13.2296 5.89397 13.2481 5.79394 13.2859 5.70056C13.3236 5.60717 13.3797 5.52233 13.451 5.45111C13.5222 5.3799 13.607 5.32375 13.7004 5.28603C13.7938 5.24831 13.8938 5.22978 13.9945 5.23156C14.0952 5.23334 14.1945 5.25538 14.2865 5.29637C14.3785 5.33736 14.4613 5.39647 14.53 5.47015L20.53 11.4702Z" fill="#3DB2FF"/>
</g>
</svg>
